HIERARCHY
ROOT Base
{
  OFFSET 40.0631 -7.20455 -19.0727
  CHANNELS 6 Xposition Yposition Zposition Zrotation Xrotation Yrotation
  JOINT Hips
  {
    OFFSET 0 103.797 1.28397
    CHANNELS 6 Xposition Yposition Zposition Zrotation Xrotation Yrotation
    JOINT Spine
    {
      OFFSET 0 10.1816 0.1315
      CHANNELS 6 Xposition Yposition Zposition Zrotation Xrotation Yrotation
      JOINT Spine1
      {
        OFFSET 0 10.0835 -1.0008
        CHANNELS 6 Xposition Yposition Zposition Zrotation Xrotation Yrotation
        JOINT Spine2
        {
          OFFSET 0 9.1 -1.3734
          CHANNELS 6 Xposition Yposition Zposition Zrotation Xrotation Yrotation
          JOINT Neck1
          {
            OFFSET 0 16.6717 -2.5162
            CHANNELS 6 Xposition Yposition Zposition Zrotation Xrotation Yrotation
            JOINT Neck2
            {
              OFFSET 0 9.6179 1.685
              CHANNELS 6 Xposition Yposition Zposition Zrotation Xrotation Yrotation
              JOINT Skull
              {
                OFFSET 0 7.59293 2.585
                CHANNELS 6 Xposition Yposition Zposition Zrotation Xrotation Yrotation
                JOINT LeftEye
                {
                  OFFSET 3.0676 -1.18343 6.6986
                  CHANNELS 6 Xposition Yposition Zposition Zrotation Xrotation Yrotation
                  End Site
                  {
                    OFFSET 0 0 0
                  }
                }
                JOINT RightEye
                {
                  OFFSET -3.0676 -1.18343 6.6985
                  CHANNELS 6 Xposition Yposition Zposition Zrotation Xrotation Yrotation
                  End Site
                  {
                    OFFSET 0 0 0
                  }
                }
              }
            }
          }
          JOINT LeftShoulder
          {
            OFFSET 4.5704 10.946 -2.628
            CHANNELS 6 Xposition Yposition Zposition Zrotation Xrotation Yrotation
            JOINT LeftArm
            {
              OFFSET 10.5924 -0.5246 -2.2321
              CHANNELS 6 Xposition Yposition Zposition Zrotation Xrotation Yrotation
              JOINT LeftForeArm
              {
                OFFSET 27.8415 -0.0001 0
                CHANNELS 6 Xposition Yposition Zposition Zrotation Xrotation Yrotation
                JOINT LeftHand
                {
                  OFFSET 28.3288 0 0
                  CHANNELS 6 Xposition Yposition Zposition Zrotation Xrotation Yrotation
                  JOINT LeftHandThumb1
                  {
                    OFFSET 2.4661 -1.575 2.6824
                    CHANNELS 6 Xposition Yposition Zposition Zrotation Xrotation Yrotation
                    JOINT LeftHandThumb2
                    {
                      OFFSET 3.2298 -1.8647 1.8647
                      CHANNELS 6 Xposition Yposition Zposition Zrotation Xrotation Yrotation
                      End Site
                      {
                        OFFSET 2.6526 -1.5315 1.5315
                      }
                    }
                  }
                  JOINT LeftHandIndex1
                  {
                    OFFSET 9.1093 -0.5171 2.2601
                    CHANNELS 6 Xposition Yposition Zposition Zrotation Xrotation Yrotation
                    JOINT LeftHandIndex2
                    {
                      OFFSET 3.6764 0 0
                      CHANNELS 6 Xposition Yposition Zposition Zrotation Xrotation Yrotation
                      End Site
                      {
                        OFFSET 2.8831 0 0
                      }
                    }
                  }
                  JOINT LeftHandMiddle1
                  {
                    OFFSET 9.5334 0 0
                    CHANNELS 6 Xposition Yposition Zposition Zrotation Xrotation Yrotation
                    JOINT LeftHandMiddle2
                    {
                      OFFSET 3.6982 0 0
                      CHANNELS 6 Xposition Yposition Zposition Zrotation Xrotation Yrotation
                      End Site
                      {
                        OFFSET 2.9509 0 0
                      }
                    }
                  }
                  JOINT LeftHandRing1
                  {
                    OFFSET 9.1045 -0.0439 -1.8651
                    CHANNELS 6 Xposition Yposition Zposition Zrotation Xrotation Yrotation
                    JOINT LeftHandRing2
                    {
                      OFFSET 3.154 0 0
                      CHANNELS 6 Xposition Yposition Zposition Zrotation Xrotation Yrotation
                      End Site
                      {
                        OFFSET 2.9377 0 0
                      }
                    }
                  }
                  JOINT LeftHandPinky1
                  {
                    OFFSET 8.0778 -0.4887 -3.8061
                    CHANNELS 6 Xposition Yposition Zposition Zrotation Xrotation Yrotation
                    JOINT LeftHandPinky2
                    {
                      OFFSET 3.6 0 0
                      CHANNELS 6 Xposition Yposition Zposition Zrotation Xrotation Yrotation
                      End Site
                      {
                        OFFSET 2.1142 0 0
                      }
                    }
                  }
                }
              }
            }
          }
          JOINT RightShoulder
          {
            OFFSET -4.57 10.9462 -2.628
            CHANNELS 6 Xposition Yposition Zposition Zrotation Xrotation Yrotation
            JOINT RightArm
            {
              OFFSET -10.5928 -0.5248 -2.2321
              CHANNELS 6 Xposition Yposition Zposition Zrotation Xrotation Yrotation
              JOINT RightForeArm
              {
                OFFSET -27.8415 0 0
                CHANNELS 6 Xposition Yposition Zposition Zrotation Xrotation Yrotation
                JOINT RightHand
                {
                  OFFSET -28.3288 0 0.0001
                  CHANNELS 6 Xposition Yposition Zposition Zrotation Xrotation Yrotation
                  JOINT RightHandPinky1
                  {
                    OFFSET -8.0767 -0.4885 -3.806
                    CHANNELS 6 Xposition Yposition Zposition Zrotation Xrotation Yrotation
                    JOINT RightHandPinky2
                    {
                      OFFSET -3.6 0 0.0001
                      CHANNELS 6 Xposition Yposition Zposition Zrotation Xrotation Yrotation
                      End Site
                      {
                        OFFSET -2.1142 0 0
                      }
                    }
                  }
                  JOINT RightHandRing1
                  {
                    OFFSET -9.1036 -0.0439 -1.8651
                    CHANNELS 6 Xposition Yposition Zposition Zrotation Xrotation Yrotation
                    JOINT RightHandRing2
                    {
                      OFFSET -3.154 0 0
                      CHANNELS 6 Xposition Yposition Zposition Zrotation Xrotation Yrotation
                      End Site
                      {
                        OFFSET -2.9377 0 0
                      }
                    }
                  }
                  JOINT RightHandMiddle1
                  {
                    OFFSET -9.5325 0 0
                    CHANNELS 6 Xposition Yposition Zposition Zrotation Xrotation Yrotation
                    JOINT RightHandMiddle2
                    {
                      OFFSET -3.6982 0 0
                      CHANNELS 6 Xposition Yposition Zposition Zrotation Xrotation Yrotation
                      End Site
                      {
                        OFFSET -2.9509 0 0
                      }
                    }
                  }
                  JOINT RightHandIndex1
                  {
                    OFFSET -9.1083 -0.5168 2.2601
                    CHANNELS 6 Xposition Yposition Zposition Zrotation Xrotation Yrotation
                    JOINT RightHandIndex2
                    {
                      OFFSET -3.6764 0 0
                      CHANNELS 6 Xposition Yposition Zposition Zrotation Xrotation Yrotation
                      End Site
                      {
                        OFFSET -2.8831 0 0
                      }
                    }
                  }
                  JOINT RightHandThumb1
                  {
                    OFFSET -2.4648 -1.5727 2.6826
                    CHANNELS 6 Xposition Yposition Zposition Zrotation Xrotation Yrotation
                    JOINT RightHandThumb2
                    {
                      OFFSET -3.2298 -1.8647 1.8647
                      CHANNELS 6 Xposition Yposition Zposition Zrotation Xrotation Yrotation
                      End Site
                      {
                        OFFSET -2.6526 -1.5314 1.5314
                      }
                    }
                  }
                }
              }
            }
          }
        }
      }
    }
    JOINT LeftUpLeg
    {
      OFFSET 8.2078 -6.7517 -1.5996
      CHANNELS 6 Xposition Yposition Zposition Zrotation Xrotation Yrotation
      JOINT LeftLeg
      {
        OFFSET 0 -44.3705 0.2846
        CHANNELS 6 Xposition Yposition Zposition Zrotation Xrotation Yrotation
        JOINT LeftFoot
        {
          OFFSET 0 -44.4279 -2.9822
          CHANNELS 6 Xposition Yposition Zposition Zrotation Xrotation Yrotation
          End Site
          {
            OFFSET 0 -8.7287 10.7106
          }
        }
      }
    }
    JOINT RightUpLeg
    {
      OFFSET -8.2078 -6.7517 -1.5996
      CHANNELS 6 Xposition Yposition Zposition Zrotation Xrotation Yrotation
      JOINT RightLeg
      {
        OFFSET 0 -44.3705 0.2862
        CHANNELS 6 Xposition Yposition Zposition Zrotation Xrotation Yrotation
        JOINT RightFoot
        {
          OFFSET 0 -44.4277 -2.9838
          CHANNELS 6 Xposition Yposition Zposition Zrotation Xrotation Yrotation
          End Site
          {
            OFFSET 0 -8.7287 10.7106
          }
        }
      }
    }
  }
}
MOTION
Frames:	5
Frame Time:	0.0416667
2.28763 -3.98156 7.59598 1.28577 -3.97549 34.708 -8.88178e-016 103.797 1.28397 -4.41391e-032 7.95139e-016 3.18055e-015 0 10.1816 0.1315 3.97825 9.22536 12.0542 0 10.0835 -1.0008 -8.039 0.791406 1.93261 -1.77636e-015 9.1 -1.3734 -8.03834 1.01344 1.84184 -3.55271e-015 16.6717 -2.5162 -3.68363 -2.78322 -3.34634 7.10543e-015 9.6179 1.685 -3.68363 -2.78321 -3.34633 -7.10543e-015 7.59293 2.585 -3.68363 -2.7832 -3.34636 3.0676 -1.18343 6.6986 1.59028e-015 -1.59028e-015 3.18055e-015 -3.0676 -1.18343 6.6985 1.59028e-015 -1.59028e-015 3.18055e-015 4.5704 10.946 -2.628 2.76313 0.0749145 2.66595 10.5924 -0.5246 -2.2321 -33.3917 58.2955 -7.153 27.8415 -0.0001 0 -0.000193265 -4.64343e-006 -80.1753 28.3288 -7.10543e-015 0 27.9796 12.2472 -15.3909 2.4661 -1.575 2.6824 22.6064 -0.810319 9.03761 3.2298 -1.8647 1.8647 1.04028 4.50895 11.9971 9.1093 -0.5171 2.2601 11.2734 -0.132922 -1.3467 3.6764 1.42109e-014 7.10543e-015 1.62926e-005 -5.69335e-006 4.43948e-006 9.5334 -1.42109e-014 0 7.86566 -0.0648144 -0.942698 3.6982 0 0 -2.06768 -0.00447911 0.248545 9.1045 -0.0439 -1.8651 3.66242 -0.014066 -0.439999 3.154 1.42109e-014 0 -5.51673 -0.0319115 0.662235 8.0778 -0.4887 -3.8061 0.822416 0.017536 4.01668 3.6 0 1.42109e-014 -8.84111 0.533196 -3.00881 -4.57 10.9462 -2.628 -17.8439 -0.507188 7.80006 -10.5928 -0.5248 -2.2321 14.7263 10.3349 15.5826 -27.8415 -2.84217e-014 0 2.15511e-006 -4.67328e-006 15.6046 -28.3288 -2.84217e-014 0.0001 43.6812 36.6098 -34.0073 -8.0767 -0.4885 -3.806 32.4112 0.601098 -3.72063 -3.6 0 0.0001 20.3038 1.35704 -1.81786 -9.1036 -0.0439 -1.8651 29.9543 0.755537 -3.46418 -3.154 0 0 21.0525 1.33249 -1.88339 -9.5325 1.42109e-014 0 27.1489 0.918035 -3.1655 -3.6982 1.42109e-014 0 21.5029 1.31753 -1.92181 -9.1083 -0.5168 2.2601 25.069 1.02894 -2.93917 -3.6764 0 0 21.6019 1.31419 -1.93024 -2.4648 -1.5727 2.6826 -24.6269 -2.04639 -1.47178 -3.2298 -1.8647 1.8647 -0.639695 5.38144 -14.8858 8.2078 -6.7517 -1.5996 8.97533 -13.5868 -2.62948 3.55271e-015 -44.3705 0.2846 2.12697 29.1566 -10.602 0 -44.4279 -2.9822 -8.47144 -13.3616 -12.1836 -8.2078 -6.7517 -1.5996 -11.2618 -10.9325 -6.07351 0 -44.3705 0.2862 6.62273 29.4425 -13.5016 3.55271e-015 -44.4277 -2.9838 7.6009 -11.9774 -20.9647 
1.86637 -4.79117 10.3344 2.45658 -4.99972 37.3287 -8.88178e-016 103.797 1.28397 -7.95139e-016 0 -0 8.88178e-016 10.1816 0.1315 3.99239 12.5961 12.6217 -8.88178e-016 10.0835 -1.0008 -8.62873 1.44397 2.18969 0 9.1 -1.3734 -8.61972 1.70864 2.0403 3.55271e-015 16.6717 -2.5162 -3.98871 -3.50715 -3.8602 0 9.6179 1.685 -3.98873 -3.5071 -3.86019 0 7.59293 2.585 -3.98864 -3.50703 -3.86022 3.0676 -1.18343 6.6986 1.76556e-031 -3.18055e-015 3.18055e-015 -3.0676 -1.18343 6.6985 1.76556e-031 -3.18055e-015 3.18055e-015 4.5704 10.946 -2.628 1.18069 0.125718 2.31046 10.5924 -0.5246 -2.2321 -26.9639 50.6335 -11.0179 27.8415 -0.0001 1.42109e-014 -0.000194262 -1.20192e-005 -78.6731 28.3288 0 -7.10543e-015 29.1465 16.048 -15.3168 2.4661 -1.575 2.6824 22.6134 -0.803954 9.09063 3.2298 -1.8647 1.8647 1.04211 4.51202 12.0236 9.1093 -0.5171 2.2601 10.9227 -0.1248 -1.30533 3.6764 0 7.10543e-015 -1.63834e-005 4.93341e-007 -6.76896e-007 9.5334 -1.42109e-014 3.55271e-015 7.41046 -0.0575262 -0.88845 3.6982 0 0 -2.24919 -0.00530601 0.270341 9.1045 -0.0439 -1.8651 3.07375 -0.00990649 -0.369368 3.154 0 3.55271e-015 -5.83896 -0.0357357 0.700782 8.0778 -0.4887 -3.8061 0.122378 0.0182382 4.10084 3.6 0 -3.55271e-015 -9.26697 0.555362 -2.95349 -4.57 10.9462 -2.628 -16.8761 -0.359421 6.77496 -10.5928 -0.5248 -2.2321 18.0431 -13.5596 12.4349 -27.8415 -2.84217e-014 3.55271e-015 3.71466e-006 3.86477e-007 5.44324 -28.3288 5.68434e-014 0.0001 34.7527 35.7258 -45.0795 -8.0767 -0.4885 -3.806 38.0946 0.205319 -4.2849 -3.6 0 0.0001 25.2025 1.18285 -2.23088 -9.1036 -0.0439 -1.8651 35.0972 0.421898 -3.99093 -3.154 0 -1.42109e-014 24.2466 1.21941 -2.15297 -9.5325 -1.42109e-014 1.42109e-014 31.6623 0.650314 -3.64253 -3.6982 2.84217e-014 0 22.492 1.28349 -2.00571 -9.1083 -0.5168 2.2601 29.1048 0.806324 -3.37456 -3.6764 0 0 20.7564 1.34225 -1.8581 -2.4648 -1.5727 2.6826 -24.8495 -1.88161 -2.95563 -3.2298 -1.8647 1.8647 -0.684062 5.46802 -15.6263 8.2078 -6.7517 -1.5996 9.3084 -14.2039 0.155176 0 -44.3705 0.2846 6.64514 30.679 -12.7074 0 -44.4279 -2.9822 -12.0678 -13.0937 -17.0925 -8.2078 -6.7517 -1.5996 -10.8782 -11.645 -9.47198 0 -44.3705 0.2862 6.39721 34.9549 -13.8686 0 -44.4277 -2.9838 6.91532 -15.0508 -19.258 
0.299886 -6.01125 14.4297 2.91089 -6.66293 39.8376 -1.77636e-015 103.797 1.28397 7.95139e-016 0 -0 0 10.1816 0.1315 3.824 15.1191 11.6866 2.22045e-016 10.0835 -1.0008 -7.99055 1.58766 2.11753 1.77636e-015 9.1 -1.3734 -7.98699 1.82715 1.93461 3.55271e-015 16.6717 -2.5162 -3.93987 -3.75226 -4.08946 7.10543e-015 9.6179 1.685 -3.93988 -3.75224 -4.08948 0 7.59293 2.585 -3.93984 -3.75219 -4.08952 3.0676 -1.18343 6.6986 -3.18055e-015 0 -0 -3.0676 -1.18343 6.6985 -3.18055e-015 0 -0 4.5704 10.946 -2.628 1.17167 0.312495 0.335523 10.5924 -0.5246 -2.2321 -30.7536 43.3652 -8.8365 27.8415 -0.0001 0 -0.000209951 6.04978e-006 -75.8393 28.3288 7.10543e-015 0 28.2477 13.9193 -10.809 2.4661 -1.575 2.6824 22.6376 -0.781553 9.27685 3.2298 -1.8647 1.8647 1.04856 4.52284 12.1167 9.1093 -0.5171 2.2601 10.7708 -0.121359 -1.28739 3.6764 0 -7.10543e-015 -9.67956e-005 1.98267e-007 -1.54577e-006 9.5334 1.42109e-014 0 7.15173 -0.0535888 -0.857605 3.6982 1.42109e-014 3.55271e-015 -2.40474 -0.00606351 0.289033 9.1045 -0.0439 -1.8651 2.68018 -0.00752664 -0.322096 3.154 0 3.55271e-015 -6.12885 -0.0393773 0.735446 8.0778 -0.4887 -3.8061 -0.382398 0.0181019 4.16152 3.6 0 0 -9.65838 0.575374 -2.90252 -4.57 10.9462 -2.628 -15.8322 -0.187443 4.39427 -10.5928 -0.5248 -2.2321 18.6686 -25.3505 11.3518 -27.8415 0 0 3.46084e-007 1.69516e-007 1.97962 -28.3288 0 0.0001 7.62664 28.753 -31.9435 -8.0767 -0.4885 -3.806 36.2978 0.334028 -4.10891 -3.6 0 0.0001 30.5389 0.955685 -2.66327 -9.1036 -0.0439 -1.8651 34.1188 0.487554 -3.892 -3.154 0 0 28.2567 1.05743 -2.48234 -9.5325 -2.84217e-014 0 31.6929 0.649372 -3.64609 -3.6982 0 0 24.9241 1.19381 -2.20947 -9.1083 -0.5168 2.2601 29.9488 0.760082 -3.46552 -3.6764 0 7.10543e-015 21.9195 1.30315 -1.95714 -2.4648 -1.5727 2.6826 -24.6431 -2.03458 -1.57659 -3.2298 -1.8647 1.8647 -0.642959 5.3877 -14.9381 8.2078 -6.7517 -1.5996 10.7362 -15.6751 1.29118 -3.55271e-015 -44.3705 0.2846 10.6793 34.1721 -15.5377 0 -44.4279 -2.9822 -15.0358 -14.2455 -18.9339 -8.2078 -6.7517 -1.5996 -9.29457 -12.5392 -11.5948 0 -44.3705 0.2862 6.71851 40.8144 -14.6138 -3.55271e-015 -44.4277 -2.9838 6.0461 -18.669 -19.2977 
-1.58388 -6.97463 21.217 2.93805 -9.79985 41.408 3.55271e-015 103.797 1.28397 1.59028e-015 0 9.54166e-015 1.77636e-015 10.1816 0.1315 3.69323 17.255 9.30437 -8.88178e-016 10.0835 -1.0008 -6.22624 1.45867 1.74065 0 9.1 -1.3734 -6.23424 1.61937 1.56051 0 16.6717 -2.5162 -3.42046 -3.60648 -3.98726 0 9.6179 1.685 -3.42046 -3.60648 -3.98726 1.42109e-014 7.59293 2.585 -3.42046 -3.60648 -3.98728 3.0676 -1.18343 6.6986 3.18055e-015 1.59028e-015 -9.54166e-015 -3.0676 -1.18343 6.6985 3.18055e-015 1.59028e-015 -9.54166e-015 4.5704 10.946 -2.628 0.613159 0.715578 -2.89129 10.5924 -0.5246 -2.2321 -39.3574 36.6295 -5.16882 27.8415 -0.0001 1.42109e-014 -0.000183951 8.91266e-007 -76.2455 28.3288 -7.10543e-015 -7.10543e-015 27.297 -1.80915 1.11124 2.4661 -1.575 2.6824 22.6817 -0.740484 9.61642 3.2298 -1.8647 1.8647 1.06026 4.5426 12.2864 9.1093 -0.5171 2.2601 10.9142 -0.124595 -1.30433 3.6764 0 7.10543e-015 -3.68542e-006 2.23496e-005 1.23662e-006 9.5334 0 0 7.16518 -0.0537875 -0.859212 3.6982 0 7.10543e-015 -2.5181 -0.00665894 0.302642 9.1045 -0.0439 -1.8651 2.53234 -0.00671324 -0.304339 3.154 0 0 -6.35512 -0.0423386 0.762483 8.0778 -0.4887 -3.8061 -0.66107 0.0177918 4.19502 3.6 0 -7.10543e-015 -9.9723 0.59118 -2.86154 -4.57 10.9462 -2.628 -14.2561 -0.0368682 2.10279 -10.5928 -0.5248 -2.2321 18.5409 -28.2388 13.6676 -27.8415 2.84217e-014 0 1.01068e-006 2.51087e-006 6.27554 -28.3288 0 0.0001 -10.9336 16.4064 -17.5465 -8.0767 -0.4885 -3.806 32.7408 0.579206 -3.75406 -3.6 -2.84217e-014 0.0001 32.0222 0.885383 -2.7796 -9.1036 -0.0439 -1.8651 29.0837 0.806057 -3.37148 -3.154 2.84217e-014 -3.55271e-015 29.816 0.98853 -2.60746 -9.5325 -1.42109e-014 3.55271e-015 24.7796 1.04138 -2.90599 -3.6982 -5.68434e-014 -3.55271e-015 26.6625 1.12504 -2.353 -9.1083 -0.5168 2.2601 21.4763 1.19827 -2.53753 -3.6764 0 7.10543e-015 23.9511 1.23097 -2.12852 -2.4648 -1.5727 2.6826 -24.3752 -2.22235 0.173624 -3.2298 -1.8647 1.8647 -0.589198 5.28612 -14.0652 8.2078 -6.7517 -1.5996 14.3209 -16.4833 1.62874 0 -44.3705 0.2846 12.7678 38.8608 -18.3819 7.10543e-015 -44.4279 -2.9822 -16.8315 -16.4085 -18.5722 -8.2078 -6.7517 -1.5996 -6.45515 -12.194 -11.4318 0 -44.3705 0.2862 8.96455 45.4675 -16.6713 0 -44.4277 -2.9838 4.67769 -22.0082 -20.4824 
-2.98558 -6.89371 30.1526 2.84817 -14.3249 40.7439 3.55271e-015 103.797 1.28397 2.64834e-031 4.77083e-015 -3.18055e-015 0 10.1816 0.1315 4.54051 19.5384 6.51223 1.77636e-015 10.0835 -1.0008 -4.33315 1.60842 1.32508 0 9.1 -1.3734 -4.34445 1.6964 1.16598 0 16.6717 -2.5162 -2.66492 -3.45103 -3.66979 0 9.6179 1.685 -2.66492 -3.45103 -3.66979 0 7.59293 2.585 -2.66493 -3.45103 -3.6698 3.0676 -1.18343 6.6986 0 0 -0 -3.0676 -1.18343 6.6985 0 0 -0 4.5704 10.946 -2.628 -1.40569 1.25907 -6.0224 10.5924 -0.5246 -2.2321 -45.6416 28.7827 -6.62685 27.8415 -0.0001 -7.10543e-015 -0.000181629 6.37103e-006 -83.1909 28.3288 -7.10543e-015 1.42109e-014 36.4262 -23.6727 17.57 2.4661 -1.575 2.6824 22.7432 -0.682343 10.0934 3.2298 -1.8647 1.8647 1.07659 4.5704 12.5247 9.1093 -0.5171 2.2601 11.4743 -0.137674 -1.37039 3.6764 0 0 -4.66374e-006 2.10874e-006 -3.33468e-007 9.5334 -7.10543e-015 0 7.53914 -0.0595417 -0.903793 3.6982 3.55271e-015 1.42109e-014 -2.57722 -0.00696556 0.309736 9.1045 -0.0439 -1.8651 2.67814 -0.00750828 -0.321848 3.154 3.55271e-015 0 -6.49522 -0.0442375 0.779214 8.0778 -0.4887 -3.8061 -0.698097 0.0177574 4.19948 3.6 0 0 -10.1777 0.601386 -2.83468 -4.57 10.9462 -2.628 -11.9676 0.0674358 0.601024 -10.5928 -0.5248 -2.2321 19.438 -28.4666 20.1986 -27.8415 0 0 -6.37804e-007 6.47965e-007 11.6026 -28.3288 -2.84217e-014 0.0001 -16.5883 10.2139 -11.9171 -8.0767 -0.4885 -3.806 33.0554 0.558866 -3.78635 -3.6 0 0.0001 30.257 0.968629 -2.641 -9.1036 -0.0439 -1.8651 25.9168 0.98473 -3.03192 -3.154 2.84217e-014 7.10543e-015 28.1384 1.06271 -2.47289 -9.5325 -5.68434e-014 3.55271e-015 17.2577 1.37022 -2.05748 -3.6982 0 -3.55271e-015 25.0734 1.18835 -2.22203 -9.1083 -0.5168 2.2601 10.3942 1.56861 -1.25108 -3.6764 1.42109e-014 3.55271e-015 22.6026 1.27975 -2.01512 -2.4648 -1.5727 2.6826 -24.2816 -2.2851 0.77676 -3.2298 -1.8647 1.8647 -0.570314 5.25132 -13.7646 8.2078 -6.7517 -1.5996 19.6249 -15.6001 3.52473 3.55271e-015 -44.3705 0.2846 13.6472 44.1389 -20.7385 -7.10543e-015 -44.4279 -2.9822 -16.0204 -19.46 -17.3878 -8.2078 -6.7517 -1.5996 -3.04595 -10.1611 -10.044 0 -44.3705 0.2862 12.006 48.467 -19.3224 0 -44.4277 -2.9838 3.39779 -24.4048 -20.5655 
